<svg width="23" height="23" viewBox="0 0 23 23" fill="none" xmlns="http://www.w3.org/2000/svg">
<g id="ep:arrow-right-bold">
<path id="Vector" d="M7.60862 2.35154C7.33914 2.62112 7.18774 2.98668 7.18774 3.36786C7.18774 3.74903 7.33914 4.1146 7.60862 4.38417L14.7242 11.4998L7.60862 18.6154C7.34677 18.8865 7.20188 19.2497 7.20516 19.6266C7.20843 20.0035 7.35961 20.364 7.62614 20.6305C7.89266 20.8971 8.2532 21.0482 8.63011 21.0515C9.00702 21.0548 9.37013 20.9099 9.64125 20.648L17.7732 12.5161C18.0427 12.2465 18.1941 11.881 18.1941 11.4998C18.1941 11.1186 18.0427 10.7531 17.7732 10.4835L9.64125 2.35154C9.37168 2.08205 9.00611 1.93066 8.62494 1.93066C8.24376 1.93066 7.8782 2.08205 7.60862 2.35154Z" fill="#820068"/>
</g>
</svg>
