<svg width="36" height="20" viewBox="0 0 36 20" fill="none" xmlns="http://www.w3.org/2000/svg">
<path id="Vector" d="M1.2704 19.2352C1.76384 19.7249 2.433 20 3.13072 20C3.82844 20 4.4976 19.7249 4.99104 19.2352L18.0159 6.30514L31.0407 19.2352C31.537 19.711 32.2017 19.9743 32.8916 19.9684C33.5815 19.9624 34.2415 19.6877 34.7293 19.2034C35.2172 18.7191 35.4939 18.0639 35.4999 17.379C35.5059 16.6941 35.2407 16.0343 34.7614 15.5416L19.8762 0.764799C19.3828 0.275099 18.7136 0 18.0159 0C17.3182 0 16.649 0.275099 16.1556 0.764799L1.2704 15.5416C0.777115 16.0315 0.5 16.6958 0.5 17.3884C0.5 18.0811 0.777115 18.7454 1.2704 19.2352Z" fill="#820068"/>
</svg>
