<svg width="36" height="36" viewBox="0 0 36 36" fill="none" xmlns="http://www.w3.org/2000/svg">
<g id="instagram">
<rect width="36" height="36" rx="18" fill="#FFFCF2"/>
<path id="Vector_3" d="M18 14.4C17.0452 14.4 16.1295 14.7793 15.4544 15.4544C14.7793 16.1295 14.4 17.0452 14.4 18C14.4 18.9548 14.7793 19.8705 15.4544 20.5456C16.1295 21.2207 17.0452 21.6 18 21.6C18.9548 21.6 19.8705 21.2207 20.5456 20.5456C21.2207 19.8705 21.6 18.9548 21.6 18C21.6 17.0452 21.2207 16.1295 20.5456 15.4544C19.8705 14.7793 18.9548 14.4 18 14.4ZM18 12C19.5913 12 21.1174 12.6321 22.2426 13.7574C23.3679 14.8826 24 16.4087 24 18C24 19.5913 23.3679 21.1174 22.2426 22.2426C21.1174 23.3679 19.5913 24 18 24C16.4087 24 14.8826 23.3679 13.7574 22.2426C12.6321 21.1174 12 19.5913 12 18C12 16.4087 12.6321 14.8826 13.7574 13.7574C14.8826 12.6321 16.4087 12 18 12ZM25.8 11.7C25.8 12.0978 25.642 12.4794 25.3607 12.7607C25.0794 13.042 24.6978 13.2 24.3 13.2C23.9022 13.2 23.5206 13.042 23.2393 12.7607C22.958 12.4794 22.8 12.0978 22.8 11.7C22.8 11.3022 22.958 10.9206 23.2393 10.6393C23.5206 10.358 23.9022 10.2 24.3 10.2C24.6978 10.2 25.0794 10.358 25.3607 10.6393C25.642 10.9206 25.8 11.3022 25.8 11.7ZM18 8.4C15.0312 8.4 14.5464 8.4084 13.1652 8.4696C12.2244 8.514 11.5932 8.64 11.0076 8.868C10.5175 9.04793 10.0745 9.33631 9.7116 9.7116C9.33601 10.0745 9.04722 10.5175 8.8668 11.0076C8.6388 11.5956 8.5128 12.2256 8.4696 13.1652C8.4072 14.49 8.3988 14.9532 8.3988 18C8.3988 20.97 8.4072 21.4536 8.4684 22.8348C8.5128 23.7744 8.6388 24.4068 8.8656 24.9912C9.0696 25.5132 9.3096 25.8888 9.708 26.2872C10.1124 26.6904 10.488 26.9316 11.004 27.1308C11.5968 27.36 12.228 27.4872 13.164 27.5304C14.4888 27.5928 14.952 27.6 17.9988 27.6C20.9688 27.6 21.4524 27.5916 22.8336 27.5304C23.772 27.486 24.4032 27.36 24.99 27.1332C25.4796 26.9524 25.9225 26.6641 26.286 26.2896C26.6904 25.8864 26.9316 25.5108 27.1308 24.9936C27.3588 24.4032 27.486 23.772 27.5292 22.8336C27.5916 21.51 27.5988 21.0456 27.5988 18C27.5988 15.0312 27.5904 14.5464 27.5292 13.1652C27.4848 12.2268 27.3576 11.5932 27.1308 11.0076C26.9499 10.518 26.6617 10.0752 26.2872 9.7116C25.9245 9.33582 25.4814 9.047 24.9912 8.8668C24.4032 8.6388 23.772 8.5128 22.8336 8.4696C21.51 8.4072 21.048 8.4 18 8.4ZM18 6C21.2604 6 21.6672 6.012 22.9476 6.072C24.2244 6.132 25.0956 6.3324 25.86 6.63C26.652 6.9348 27.3192 7.3476 27.9864 8.0136C28.5966 8.61348 29.0687 9.33911 29.37 10.14C29.6664 10.9044 29.868 11.7756 29.928 13.0536C29.9844 14.3328 30 14.7396 30 18C30 21.2604 29.988 21.6672 29.928 22.9464C29.868 24.2244 29.6664 25.0944 29.37 25.86C29.0696 26.6613 28.5973 27.3871 27.9864 27.9864C27.3864 28.5964 26.6608 29.0685 25.86 29.37C25.0956 29.6664 24.2244 29.868 22.9476 29.928C21.6672 29.9844 21.2604 30 18 30C14.7396 30 14.3328 29.988 13.0524 29.928C11.7756 29.868 10.9056 29.6664 10.14 29.37C9.33879 29.0694 8.61303 28.5971 8.0136 27.9864C7.40332 27.3866 6.93115 26.6609 6.63 25.86C6.3324 25.0956 6.132 24.2244 6.072 22.9464C6.0144 21.6672 6 21.2604 6 18C6 14.7396 6.012 14.3328 6.072 13.0536C6.132 11.7744 6.3324 10.9056 6.63 10.14C6.93028 9.33862 7.40256 8.61279 8.0136 8.0136C8.61321 7.40308 9.33891 6.93088 10.14 6.63C10.9044 6.3324 11.7744 6.132 13.0524 6.072C14.3328 6.0156 14.7396 6 18 6Z" fill="#252422"/>
</g>
</svg>
