<svg width="36" height="36" viewBox="0 0 36 36" fill="none" xmlns="http://www.w3.org/2000/svg">
<g id="linkedin">
<rect width="36" height="36" rx="18" fill="#FFFCF2"/>
<path id="Vector_4" d="M12.4071 10.2232C12.4068 10.8125 12.1744 11.3776 11.7609 11.7941C11.3475 12.2107 10.7869 12.4445 10.2025 12.4442C9.61804 12.4439 9.05767 12.2095 8.64463 11.7926C8.23159 11.3756 7.99971 10.8103 8 10.221C8.00029 9.63165 8.23273 9.06657 8.64619 8.65005C9.05965 8.23354 9.62025 7.99971 10.2047 8C10.7891 8.00029 11.3495 8.23469 11.7625 8.65162C12.1755 9.06856 12.4074 9.63387 12.4071 10.2232ZM12.4732 14.0897H8.06611V28H12.4732V14.0897ZM19.4365 14.0897H15.0514V28H19.3924V20.7004C19.3924 16.634 24.648 16.2562 24.648 20.7004V28H29V19.1894C29 12.3342 21.2214 12.5897 19.3924 15.9562L19.4365 14.0897Z" fill="#252422"/>
</g>
</svg>
