<svg width="36" height="36" viewBox="0 0 36 36" fill="none" xmlns="http://www.w3.org/2000/svg">
<g id="Twitter">
<rect width="36" height="36" rx="18" fill="#FFFCF2"/>
<path id="Vector_5" d="M30 10.2945C29.1166 10.696 28.1644 10.9598 27.1778 11.086C28.1874 10.478 28.9675 9.51434 29.3346 8.35564C28.3824 8.92925 27.327 9.33078 26.2141 9.56023C25.3078 8.57361 24.0344 8 22.5889 8C19.8929 8 17.6902 10.2027 17.6902 12.9216C17.6902 13.3117 17.7361 13.6902 17.8164 14.0459C13.7323 13.8394 10.0956 11.8776 7.67495 8.90631C7.25048 9.62906 7.00956 10.478 7.00956 11.3728C7.00956 13.0822 7.86998 14.5966 9.20077 15.457C8.38623 15.457 7.62906 15.2275 6.96367 14.8834V14.9178C6.96367 17.304 8.66157 19.3002 10.9101 19.7476C10.1882 19.9452 9.43032 19.9727 8.69599 19.8279C9.00758 20.8059 9.61782 21.6617 10.4409 22.2749C11.264 22.8881 12.2586 23.2279 13.2849 23.2467C11.5453 24.6238 9.38891 25.3682 7.17017 25.3576C6.78011 25.3576 6.39006 25.3346 6 25.2887C8.17973 26.6883 10.7725 27.5029 13.5488 27.5029C22.5889 27.5029 27.5564 20 27.5564 13.4952C27.5564 13.2772 27.5564 13.0707 27.5449 12.8528C28.5086 12.1644 29.3346 11.2925 30 10.2945Z" fill="#252422"/>
</g>
</svg>
